# Source dimensions: ROBOTIS TurtleBot3 Burger wheel URDF.
# Display reconstruction; not original STL; visual hub/tread are illustrative.
mtllib wheel.mtl
v 0.02300000 0.00000000 -0.00900000
v 0.02288925 0.00225439 -0.00900000
v 0.02255806 0.00448708 -0.00900000
v 0.02200963 0.00667655 -0.00900000
v 0.02124923 0.00880172 -0.00900000
v 0.02028419 0.01084212 -0.00900000
v 0.01912380 0.01277812 -0.00900000
v 0.01777924 0.01459105 -0.00900000
v 0.01626346 0.01626346 -0.00900000
v 0.01459105 0.01777924 -0.00900000
v 0.01277812 0.01912380 -0.00900000
v 0.01084212 0.02028419 -0.00900000
v 0.00880172 0.02124923 -0.00900000
v 0.00667655 0.02200963 -0.00900000
v 0.00448708 0.02255806 -0.00900000
v 0.00225439 0.02288925 -0.00900000
v 0.00000000 0.02300000 -0.00900000
v -0.00225439 0.02288925 -0.00900000
v -0.00448708 0.02255806 -0.00900000
v -0.00667655 0.02200963 -0.00900000
v -0.00880172 0.02124923 -0.00900000
v -0.01084212 0.02028419 -0.00900000
v -0.01277812 0.01912380 -0.00900000
v -0.01459105 0.01777924 -0.00900000
v -0.01626346 0.01626346 -0.00900000
v -0.01777924 0.01459105 -0.00900000
v -0.01912380 0.01277812 -0.00900000
v -0.02028419 0.01084212 -0.00900000
v -0.02124923 0.00880172 -0.00900000
v -0.02200963 0.00667655 -0.00900000
v -0.02255806 0.00448708 -0.00900000
v -0.02288925 0.00225439 -0.00900000
v -0.02300000 0.00000000 -0.00900000
v -0.02288925 -0.00225439 -0.00900000
v -0.02255806 -0.00448708 -0.00900000
v -0.02200963 -0.00667655 -0.00900000
v -0.02124923 -0.00880172 -0.00900000
v -0.02028419 -0.01084212 -0.00900000
v -0.01912380 -0.01277812 -0.00900000
v -0.01777924 -0.01459105 -0.00900000
v -0.01626346 -0.01626346 -0.00900000
v -0.01459105 -0.01777924 -0.00900000
v -0.01277812 -0.01912380 -0.00900000
v -0.01084212 -0.02028419 -0.00900000
v -0.00880172 -0.02124923 -0.00900000
v -0.00667655 -0.02200963 -0.00900000
v -0.00448708 -0.02255806 -0.00900000
v -0.00225439 -0.02288925 -0.00900000
v -0.00000000 -0.02300000 -0.00900000
v 0.00225439 -0.02288925 -0.00900000
v 0.00448708 -0.02255806 -0.00900000
v 0.00667655 -0.02200963 -0.00900000
v 0.00880172 -0.02124923 -0.00900000
v 0.01084212 -0.02028419 -0.00900000
v 0.01277812 -0.01912380 -0.00900000
v 0.01459105 -0.01777924 -0.00900000
v 0.01626346 -0.01626346 -0.00900000
v 0.01777924 -0.01459105 -0.00900000
v 0.01912380 -0.01277812 -0.00900000
v 0.02028419 -0.01084212 -0.00900000
v 0.02124923 -0.00880172 -0.00900000
v 0.02200963 -0.00667655 -0.00900000
v 0.02255806 -0.00448708 -0.00900000
v 0.02288925 -0.00225439 -0.00900000
v 0.03300000 0.00000000 -0.00900000
v 0.03284110 0.00323457 -0.00900000
v 0.03236591 0.00643798 -0.00900000
v 0.03157903 0.00957939 -0.00900000
v 0.03048802 0.01262855 -0.00900000
v 0.02910340 0.01555609 -0.00900000
v 0.02743850 0.01833382 -0.00900000
v 0.02550934 0.02093498 -0.00900000
v 0.02333452 0.02333452 -0.00900000
v 0.02093498 0.02550934 -0.00900000
v 0.01833382 0.02743850 -0.00900000
v 0.01555609 0.02910340 -0.00900000
v 0.01262855 0.03048802 -0.00900000
v 0.00957939 0.03157903 -0.00900000
v 0.00643798 0.03236591 -0.00900000
v 0.00323457 0.03284110 -0.00900000
v 0.00000000 0.03300000 -0.00900000
v -0.00323457 0.03284110 -0.00900000
v -0.00643798 0.03236591 -0.00900000
v -0.00957939 0.03157903 -0.00900000
v -0.01262855 0.03048802 -0.00900000
v -0.01555609 0.02910340 -0.00900000
v -0.01833382 0.02743850 -0.00900000
v -0.02093498 0.02550934 -0.00900000
v -0.02333452 0.02333452 -0.00900000
v -0.02550934 0.02093498 -0.00900000
v -0.02743850 0.01833382 -0.00900000
v -0.02910340 0.01555609 -0.00900000
v -0.03048802 0.01262855 -0.00900000
v -0.03157903 0.00957939 -0.00900000
v -0.03236591 0.00643798 -0.00900000
v -0.03284110 0.00323457 -0.00900000
v -0.03300000 0.00000000 -0.00900000
v -0.03284110 -0.00323457 -0.00900000
v -0.03236591 -0.00643798 -0.00900000
v -0.03157903 -0.00957939 -0.00900000
v -0.03048802 -0.01262855 -0.00900000
v -0.02910340 -0.01555609 -0.00900000
v -0.02743850 -0.01833382 -0.00900000
v -0.02550934 -0.02093498 -0.00900000
v -0.02333452 -0.02333452 -0.00900000
v -0.02093498 -0.02550934 -0.00900000
v -0.01833382 -0.02743850 -0.00900000
v -0.01555609 -0.02910340 -0.00900000
v -0.01262855 -0.03048802 -0.00900000
v -0.00957939 -0.03157903 -0.00900000
v -0.00643798 -0.03236591 -0.00900000
v -0.00323457 -0.03284110 -0.00900000
v -0.00000000 -0.03300000 -0.00900000
v 0.00323457 -0.03284110 -0.00900000
v 0.00643798 -0.03236591 -0.00900000
v 0.00957939 -0.03157903 -0.00900000
v 0.01262855 -0.03048802 -0.00900000
v 0.01555609 -0.02910340 -0.00900000
v 0.01833382 -0.02743850 -0.00900000
v 0.02093498 -0.02550934 -0.00900000
v 0.02333452 -0.02333452 -0.00900000
v 0.02550934 -0.02093498 -0.00900000
v 0.02743850 -0.01833382 -0.00900000
v 0.02910340 -0.01555609 -0.00900000
v 0.03048802 -0.01262855 -0.00900000
v 0.03157903 -0.00957939 -0.00900000
v 0.03236591 -0.00643798 -0.00900000
v 0.03284110 -0.00323457 -0.00900000
v 0.02300000 0.00000000 0.00900000
v 0.02288925 0.00225439 0.00900000
v 0.02255806 0.00448708 0.00900000
v 0.02200963 0.00667655 0.00900000
v 0.02124923 0.00880172 0.00900000
v 0.02028419 0.01084212 0.00900000
v 0.01912380 0.01277812 0.00900000
v 0.01777924 0.01459105 0.00900000
v 0.01626346 0.01626346 0.00900000
v 0.01459105 0.01777924 0.00900000
v 0.01277812 0.01912380 0.00900000
v 0.01084212 0.02028419 0.00900000
v 0.00880172 0.02124923 0.00900000
v 0.00667655 0.02200963 0.00900000
v 0.00448708 0.02255806 0.00900000
v 0.00225439 0.02288925 0.00900000
v 0.00000000 0.02300000 0.00900000
v -0.00225439 0.02288925 0.00900000
v -0.00448708 0.02255806 0.00900000
v -0.00667655 0.02200963 0.00900000
v -0.00880172 0.02124923 0.00900000
v -0.01084212 0.02028419 0.00900000
v -0.01277812 0.01912380 0.00900000
v -0.01459105 0.01777924 0.00900000
v -0.01626346 0.01626346 0.00900000
v -0.01777924 0.01459105 0.00900000
v -0.01912380 0.01277812 0.00900000
v -0.02028419 0.01084212 0.00900000
v -0.02124923 0.00880172 0.00900000
v -0.02200963 0.00667655 0.00900000
v -0.02255806 0.00448708 0.00900000
v -0.02288925 0.00225439 0.00900000
v -0.02300000 0.00000000 0.00900000
v -0.02288925 -0.00225439 0.00900000
v -0.02255806 -0.00448708 0.00900000
v -0.02200963 -0.00667655 0.00900000
v -0.02124923 -0.00880172 0.00900000
v -0.02028419 -0.01084212 0.00900000
v -0.01912380 -0.01277812 0.00900000
v -0.01777924 -0.01459105 0.00900000
v -0.01626346 -0.01626346 0.00900000
v -0.01459105 -0.01777924 0.00900000
v -0.01277812 -0.01912380 0.00900000
v -0.01084212 -0.02028419 0.00900000
v -0.00880172 -0.02124923 0.00900000
v -0.00667655 -0.02200963 0.00900000
v -0.00448708 -0.02255806 0.00900000
v -0.00225439 -0.02288925 0.00900000
v -0.00000000 -0.02300000 0.00900000
v 0.00225439 -0.02288925 0.00900000
v 0.00448708 -0.02255806 0.00900000
v 0.00667655 -0.02200963 0.00900000
v 0.00880172 -0.02124923 0.00900000
v 0.01084212 -0.02028419 0.00900000
v 0.01277812 -0.01912380 0.00900000
v 0.01459105 -0.01777924 0.00900000
v 0.01626346 -0.01626346 0.00900000
v 0.01777924 -0.01459105 0.00900000
v 0.01912380 -0.01277812 0.00900000
v 0.02028419 -0.01084212 0.00900000
v 0.02124923 -0.00880172 0.00900000
v 0.02200963 -0.00667655 0.00900000
v 0.02255806 -0.00448708 0.00900000
v 0.02288925 -0.00225439 0.00900000
v 0.03300000 0.00000000 0.00900000
v 0.03284110 0.00323457 0.00900000
v 0.03236591 0.00643798 0.00900000
v 0.03157903 0.00957939 0.00900000
v 0.03048802 0.01262855 0.00900000
v 0.02910340 0.01555609 0.00900000
v 0.02743850 0.01833382 0.00900000
v 0.02550934 0.02093498 0.00900000
v 0.02333452 0.02333452 0.00900000
v 0.02093498 0.02550934 0.00900000
v 0.01833382 0.02743850 0.00900000
v 0.01555609 0.02910340 0.00900000
v 0.01262855 0.03048802 0.00900000
v 0.00957939 0.03157903 0.00900000
v 0.00643798 0.03236591 0.00900000
v 0.00323457 0.03284110 0.00900000
v 0.00000000 0.03300000 0.00900000
v -0.00323457 0.03284110 0.00900000
v -0.00643798 0.03236591 0.00900000
v -0.00957939 0.03157903 0.00900000
v -0.01262855 0.03048802 0.00900000
v -0.01555609 0.02910340 0.00900000
v -0.01833382 0.02743850 0.00900000
v -0.02093498 0.02550934 0.00900000
v -0.02333452 0.02333452 0.00900000
v -0.02550934 0.02093498 0.00900000
v -0.02743850 0.01833382 0.00900000
v -0.02910340 0.01555609 0.00900000
v -0.03048802 0.01262855 0.00900000
v -0.03157903 0.00957939 0.00900000
v -0.03236591 0.00643798 0.00900000
v -0.03284110 0.00323457 0.00900000
v -0.03300000 0.00000000 0.00900000
v -0.03284110 -0.00323457 0.00900000
v -0.03236591 -0.00643798 0.00900000
v -0.03157903 -0.00957939 0.00900000
v -0.03048802 -0.01262855 0.00900000
v -0.02910340 -0.01555609 0.00900000
v -0.02743850 -0.01833382 0.00900000
v -0.02550934 -0.02093498 0.00900000
v -0.02333452 -0.02333452 0.00900000
v -0.02093498 -0.02550934 0.00900000
v -0.01833382 -0.02743850 0.00900000
v -0.01555609 -0.02910340 0.00900000
v -0.01262855 -0.03048802 0.00900000
v -0.00957939 -0.03157903 0.00900000
v -0.00643798 -0.03236591 0.00900000
v -0.00323457 -0.03284110 0.00900000
v -0.00000000 -0.03300000 0.00900000
v 0.00323457 -0.03284110 0.00900000
v 0.00643798 -0.03236591 0.00900000
v 0.00957939 -0.03157903 0.00900000
v 0.01262855 -0.03048802 0.00900000
v 0.01555609 -0.02910340 0.00900000
v 0.01833382 -0.02743850 0.00900000
v 0.02093498 -0.02550934 0.00900000
v 0.02333452 -0.02333452 0.00900000
v 0.02550934 -0.02093498 0.00900000
v 0.02743850 -0.01833382 0.00900000
v 0.02910340 -0.01555609 0.00900000
v 0.03048802 -0.01262855 0.00900000
v 0.03157903 -0.00957939 0.00900000
v 0.03236591 -0.00643798 0.00900000
v 0.03284110 -0.00323457 0.00900000
v 0.00900000 0.00000000 -0.00600000
v 0.00892300 0.00117474 -0.00600000
v 0.00869333 0.00232937 -0.00600000
v 0.00831492 0.00344415 -0.00600000
v 0.00779423 0.00450000 -0.00600000
v 0.00714018 0.00547885 -0.00600000
v 0.00636396 0.00636396 -0.00600000
v 0.00547885 0.00714018 -0.00600000
v 0.00450000 0.00779423 -0.00600000
v 0.00344415 0.00831492 -0.00600000
v 0.00232937 0.00869333 -0.00600000
v 0.00117474 0.00892300 -0.00600000
v 0.00000000 0.00900000 -0.00600000
v -0.00117474 0.00892300 -0.00600000
v -0.00232937 0.00869333 -0.00600000
v -0.00344415 0.00831492 -0.00600000
v -0.00450000 0.00779423 -0.00600000
v -0.00547885 0.00714018 -0.00600000
v -0.00636396 0.00636396 -0.00600000
v -0.00714018 0.00547885 -0.00600000
v -0.00779423 0.00450000 -0.00600000
v -0.00831492 0.00344415 -0.00600000
v -0.00869333 0.00232937 -0.00600000
v -0.00892300 0.00117474 -0.00600000
v -0.00900000 0.00000000 -0.00600000
v -0.00892300 -0.00117474 -0.00600000
v -0.00869333 -0.00232937 -0.00600000
v -0.00831492 -0.00344415 -0.00600000
v -0.00779423 -0.00450000 -0.00600000
v -0.00714018 -0.00547885 -0.00600000
v -0.00636396 -0.00636396 -0.00600000
v -0.00547885 -0.00714018 -0.00600000
v -0.00450000 -0.00779423 -0.00600000
v -0.00344415 -0.00831492 -0.00600000
v -0.00232937 -0.00869333 -0.00600000
v -0.00117474 -0.00892300 -0.00600000
v -0.00000000 -0.00900000 -0.00600000
v 0.00117474 -0.00892300 -0.00600000
v 0.00232937 -0.00869333 -0.00600000
v 0.00344415 -0.00831492 -0.00600000
v 0.00450000 -0.00779423 -0.00600000
v 0.00547885 -0.00714018 -0.00600000
v 0.00636396 -0.00636396 -0.00600000
v 0.00714018 -0.00547885 -0.00600000
v 0.00779423 -0.00450000 -0.00600000
v 0.00831492 -0.00344415 -0.00600000
v 0.00869333 -0.00232937 -0.00600000
v 0.00892300 -0.00117474 -0.00600000
v 0.02400000 0.00000000 -0.00600000
v 0.02379468 0.00313263 -0.00600000
v 0.02318222 0.00621166 -0.00600000
v 0.02217311 0.00918440 -0.00600000
v 0.02078461 0.01200000 -0.00600000
v 0.01904048 0.01461027 -0.00600000
v 0.01697056 0.01697056 -0.00600000
v 0.01461027 0.01904048 -0.00600000
v 0.01200000 0.02078461 -0.00600000
v 0.00918440 0.02217311 -0.00600000
v 0.00621166 0.02318222 -0.00600000
v 0.00313263 0.02379468 -0.00600000
v 0.00000000 0.02400000 -0.00600000
v -0.00313263 0.02379468 -0.00600000
v -0.00621166 0.02318222 -0.00600000
v -0.00918440 0.02217311 -0.00600000
v -0.01200000 0.02078461 -0.00600000
v -0.01461027 0.01904048 -0.00600000
v -0.01697056 0.01697056 -0.00600000
v -0.01904048 0.01461027 -0.00600000
v -0.02078461 0.01200000 -0.00600000
v -0.02217311 0.00918440 -0.00600000
v -0.02318222 0.00621166 -0.00600000
v -0.02379468 0.00313263 -0.00600000
v -0.02400000 0.00000000 -0.00600000
v -0.02379468 -0.00313263 -0.00600000
v -0.02318222 -0.00621166 -0.00600000
v -0.02217311 -0.00918440 -0.00600000
v -0.02078461 -0.01200000 -0.00600000
v -0.01904048 -0.01461027 -0.00600000
v -0.01697056 -0.01697056 -0.00600000
v -0.01461027 -0.01904048 -0.00600000
v -0.01200000 -0.02078461 -0.00600000
v -0.00918440 -0.02217311 -0.00600000
v -0.00621166 -0.02318222 -0.00600000
v -0.00313263 -0.02379468 -0.00600000
v -0.00000000 -0.02400000 -0.00600000
v 0.00313263 -0.02379468 -0.00600000
v 0.00621166 -0.02318222 -0.00600000
v 0.00918440 -0.02217311 -0.00600000
v 0.01200000 -0.02078461 -0.00600000
v 0.01461027 -0.01904048 -0.00600000
v 0.01697056 -0.01697056 -0.00600000
v 0.01904048 -0.01461027 -0.00600000
v 0.02078461 -0.01200000 -0.00600000
v 0.02217311 -0.00918440 -0.00600000
v 0.02318222 -0.00621166 -0.00600000
v 0.02379468 -0.00313263 -0.00600000
v 0.00900000 0.00000000 0.00600000
v 0.00892300 0.00117474 0.00600000
v 0.00869333 0.00232937 0.00600000
v 0.00831492 0.00344415 0.00600000
v 0.00779423 0.00450000 0.00600000
v 0.00714018 0.00547885 0.00600000
v 0.00636396 0.00636396 0.00600000
v 0.00547885 0.00714018 0.00600000
v 0.00450000 0.00779423 0.00600000
v 0.00344415 0.00831492 0.00600000
v 0.00232937 0.00869333 0.00600000
v 0.00117474 0.00892300 0.00600000
v 0.00000000 0.00900000 0.00600000
v -0.00117474 0.00892300 0.00600000
v -0.00232937 0.00869333 0.00600000
v -0.00344415 0.00831492 0.00600000
v -0.00450000 0.00779423 0.00600000
v -0.00547885 0.00714018 0.00600000
v -0.00636396 0.00636396 0.00600000
v -0.00714018 0.00547885 0.00600000
v -0.00779423 0.00450000 0.00600000
v -0.00831492 0.00344415 0.00600000
v -0.00869333 0.00232937 0.00600000
v -0.00892300 0.00117474 0.00600000
v -0.00900000 0.00000000 0.00600000
v -0.00892300 -0.00117474 0.00600000
v -0.00869333 -0.00232937 0.00600000
v -0.00831492 -0.00344415 0.00600000
v -0.00779423 -0.00450000 0.00600000
v -0.00714018 -0.00547885 0.00600000
v -0.00636396 -0.00636396 0.00600000
v -0.00547885 -0.00714018 0.00600000
v -0.00450000 -0.00779423 0.00600000
v -0.00344415 -0.00831492 0.00600000
v -0.00232937 -0.00869333 0.00600000
v -0.00117474 -0.00892300 0.00600000
v -0.00000000 -0.00900000 0.00600000
v 0.00117474 -0.00892300 0.00600000
v 0.00232937 -0.00869333 0.00600000
v 0.00344415 -0.00831492 0.00600000
v 0.00450000 -0.00779423 0.00600000
v 0.00547885 -0.00714018 0.00600000
v 0.00636396 -0.00636396 0.00600000
v 0.00714018 -0.00547885 0.00600000
v 0.00779423 -0.00450000 0.00600000
v 0.00831492 -0.00344415 0.00600000
v 0.00869333 -0.00232937 0.00600000
v 0.00892300 -0.00117474 0.00600000
v 0.02400000 0.00000000 0.00600000
v 0.02379468 0.00313263 0.00600000
v 0.02318222 0.00621166 0.00600000
v 0.02217311 0.00918440 0.00600000
v 0.02078461 0.01200000 0.00600000
v 0.01904048 0.01461027 0.00600000
v 0.01697056 0.01697056 0.00600000
v 0.01461027 0.01904048 0.00600000
v 0.01200000 0.02078461 0.00600000
v 0.00918440 0.02217311 0.00600000
v 0.00621166 0.02318222 0.00600000
v 0.00313263 0.02379468 0.00600000
v 0.00000000 0.02400000 0.00600000
v -0.00313263 0.02379468 0.00600000
v -0.00621166 0.02318222 0.00600000
v -0.00918440 0.02217311 0.00600000
v -0.01200000 0.02078461 0.00600000
v -0.01461027 0.01904048 0.00600000
v -0.01697056 0.01697056 0.00600000
v -0.01904048 0.01461027 0.00600000
v -0.02078461 0.01200000 0.00600000
v -0.02217311 0.00918440 0.00600000
v -0.02318222 0.00621166 0.00600000
v -0.02379468 0.00313263 0.00600000
v -0.02400000 0.00000000 0.00600000
v -0.02379468 -0.00313263 0.00600000
v -0.02318222 -0.00621166 0.00600000
v -0.02217311 -0.00918440 0.00600000
v -0.02078461 -0.01200000 0.00600000
v -0.01904048 -0.01461027 0.00600000
v -0.01697056 -0.01697056 0.00600000
v -0.01461027 -0.01904048 0.00600000
v -0.01200000 -0.02078461 0.00600000
v -0.00918440 -0.02217311 0.00600000
v -0.00621166 -0.02318222 0.00600000
v -0.00313263 -0.02379468 0.00600000
v -0.00000000 -0.02400000 0.00600000
v 0.00313263 -0.02379468 0.00600000
v 0.00621166 -0.02318222 0.00600000
v 0.00918440 -0.02217311 0.00600000
v 0.01200000 -0.02078461 0.00600000
v 0.01461027 -0.01904048 0.00600000
v 0.01697056 -0.01697056 0.00600000
v 0.01904048 -0.01461027 0.00600000
v 0.02078461 -0.01200000 0.00600000
v 0.02217311 -0.00918440 0.00600000
v 0.02318222 -0.00621166 0.00600000
v 0.02379468 -0.00313263 0.00600000
v 0.00200000 0.00000000 -0.01100000
v 0.00196157 0.00039018 -0.01100000
v 0.00184776 0.00076537 -0.01100000
v 0.00166294 0.00111114 -0.01100000
v 0.00141421 0.00141421 -0.01100000
v 0.00111114 0.00166294 -0.01100000
v 0.00076537 0.00184776 -0.01100000
v 0.00039018 0.00196157 -0.01100000
v 0.00000000 0.00200000 -0.01100000
v -0.00039018 0.00196157 -0.01100000
v -0.00076537 0.00184776 -0.01100000
v -0.00111114 0.00166294 -0.01100000
v -0.00141421 0.00141421 -0.01100000
v -0.00166294 0.00111114 -0.01100000
v -0.00184776 0.00076537 -0.01100000
v -0.00196157 0.00039018 -0.01100000
v -0.00200000 0.00000000 -0.01100000
v -0.00196157 -0.00039018 -0.01100000
v -0.00184776 -0.00076537 -0.01100000
v -0.00166294 -0.00111114 -0.01100000
v -0.00141421 -0.00141421 -0.01100000
v -0.00111114 -0.00166294 -0.01100000
v -0.00076537 -0.00184776 -0.01100000
v -0.00039018 -0.00196157 -0.01100000
v -0.00000000 -0.00200000 -0.01100000
v 0.00039018 -0.00196157 -0.01100000
v 0.00076537 -0.00184776 -0.01100000
v 0.00111114 -0.00166294 -0.01100000
v 0.00141421 -0.00141421 -0.01100000
v 0.00166294 -0.00111114 -0.01100000
v 0.00184776 -0.00076537 -0.01100000
v 0.00196157 -0.00039018 -0.01100000
v 0.01000000 0.00000000 -0.01100000
v 0.00980785 0.00195090 -0.01100000
v 0.00923880 0.00382683 -0.01100000
v 0.00831470 0.00555570 -0.01100000
v 0.00707107 0.00707107 -0.01100000
v 0.00555570 0.00831470 -0.01100000
v 0.00382683 0.00923880 -0.01100000
v 0.00195090 0.00980785 -0.01100000
v 0.00000000 0.01000000 -0.01100000
v -0.00195090 0.00980785 -0.01100000
v -0.00382683 0.00923880 -0.01100000
v -0.00555570 0.00831470 -0.01100000
v -0.00707107 0.00707107 -0.01100000
v -0.00831470 0.00555570 -0.01100000
v -0.00923880 0.00382683 -0.01100000
v -0.00980785 0.00195090 -0.01100000
v -0.01000000 0.00000000 -0.01100000
v -0.00980785 -0.00195090 -0.01100000
v -0.00923880 -0.00382683 -0.01100000
v -0.00831470 -0.00555570 -0.01100000
v -0.00707107 -0.00707107 -0.01100000
v -0.00555570 -0.00831470 -0.01100000
v -0.00382683 -0.00923880 -0.01100000
v -0.00195090 -0.00980785 -0.01100000
v -0.00000000 -0.01000000 -0.01100000
v 0.00195090 -0.00980785 -0.01100000
v 0.00382683 -0.00923880 -0.01100000
v 0.00555570 -0.00831470 -0.01100000
v 0.00707107 -0.00707107 -0.01100000
v 0.00831470 -0.00555570 -0.01100000
v 0.00923880 -0.00382683 -0.01100000
v 0.00980785 -0.00195090 -0.01100000
v 0.00200000 0.00000000 0.01100000
v 0.00196157 0.00039018 0.01100000
v 0.00184776 0.00076537 0.01100000
v 0.00166294 0.00111114 0.01100000
v 0.00141421 0.00141421 0.01100000
v 0.00111114 0.00166294 0.01100000
v 0.00076537 0.00184776 0.01100000
v 0.00039018 0.00196157 0.01100000
v 0.00000000 0.00200000 0.01100000
v -0.00039018 0.00196157 0.01100000
v -0.00076537 0.00184776 0.01100000
v -0.00111114 0.00166294 0.01100000
v -0.00141421 0.00141421 0.01100000
v -0.00166294 0.00111114 0.01100000
v -0.00184776 0.00076537 0.01100000
v -0.00196157 0.00039018 0.01100000
v -0.00200000 0.00000000 0.01100000
v -0.00196157 -0.00039018 0.01100000
v -0.00184776 -0.00076537 0.01100000
v -0.00166294 -0.00111114 0.01100000
v -0.00141421 -0.00141421 0.01100000
v -0.00111114 -0.00166294 0.01100000
v -0.00076537 -0.00184776 0.01100000
v -0.00039018 -0.00196157 0.01100000
v -0.00000000 -0.00200000 0.01100000
v 0.00039018 -0.00196157 0.01100000
v 0.00076537 -0.00184776 0.01100000
v 0.00111114 -0.00166294 0.01100000
v 0.00141421 -0.00141421 0.01100000
v 0.00166294 -0.00111114 0.01100000
v 0.00184776 -0.00076537 0.01100000
v 0.00196157 -0.00039018 0.01100000
v 0.01000000 0.00000000 0.01100000
v 0.00980785 0.00195090 0.01100000
v 0.00923880 0.00382683 0.01100000
v 0.00831470 0.00555570 0.01100000
v 0.00707107 0.00707107 0.01100000
v 0.00555570 0.00831470 0.01100000
v 0.00382683 0.00923880 0.01100000
v 0.00195090 0.00980785 0.01100000
v 0.00000000 0.01000000 0.01100000
v -0.00195090 0.00980785 0.01100000
v -0.00382683 0.00923880 0.01100000
v -0.00555570 0.00831470 0.01100000
v -0.00707107 0.00707107 0.01100000
v -0.00831470 0.00555570 0.01100000
v -0.00923880 0.00382683 0.01100000
v -0.00980785 0.00195090 0.01100000
v -0.01000000 0.00000000 0.01100000
v -0.00980785 -0.00195090 0.01100000
v -0.00923880 -0.00382683 0.01100000
v -0.00831470 -0.00555570 0.01100000
v -0.00707107 -0.00707107 0.01100000
v -0.00555570 -0.00831470 0.01100000
v -0.00382683 -0.00923880 0.01100000
v -0.00195090 -0.00980785 0.01100000
v -0.00000000 -0.01000000 0.01100000
v 0.00195090 -0.00980785 0.01100000
v 0.00382683 -0.00923880 0.01100000
v 0.00555570 -0.00831470 0.01100000
v 0.00707107 -0.00707107 0.01100000
v 0.00831470 -0.00555570 0.01100000
v 0.00923880 -0.00382683 0.01100000
v 0.00980785 -0.00195090 0.01100000
v 0.03270000 0.00000000 -0.00850000
v 0.03269209 0.00071934 -0.00850000
v 0.03299201 0.00072594 -0.00850000
v 0.03300000 0.00000000 -0.00850000
v 0.03270000 0.00000000 0.00850000
v 0.03269209 0.00071934 0.00850000
v 0.03299201 0.00072594 0.00850000
v 0.03300000 0.00000000 0.00850000
v 0.03242025 0.00426821 -0.00850000
v 0.03231851 0.00498036 -0.00850000
v 0.03261501 0.00502605 -0.00850000
v 0.03271768 0.00430736 -0.00850000
v 0.03242025 0.00426821 0.00850000
v 0.03231851 0.00498036 0.00850000
v 0.03261501 0.00502605 0.00850000
v 0.03271768 0.00430736 0.00850000
v 0.03158577 0.00846338 -0.00850000
v 0.03139195 0.00915617 -0.00850000
v 0.03167995 0.00924017 -0.00850000
v 0.03187555 0.00854103 -0.00850000
v 0.03158577 0.00846338 0.00850000
v 0.03139195 0.00915617 0.00850000
v 0.03167995 0.00924017 0.00850000
v 0.03187555 0.00854103 0.00850000
v 0.03021086 0.01251375 -0.00850000
v 0.02992827 0.01317531 -0.00850000
v 0.03020284 0.01329618 -0.00850000
v 0.03048802 0.01262855 -0.00850000
v 0.03021086 0.01251375 0.00850000
v 0.02992827 0.01317531 0.00850000
v 0.03020284 0.01329618 0.00850000
v 0.03048802 0.01262855 0.00850000
v 0.02831903 0.01635000 -0.00850000
v 0.02795251 0.01696901 -0.00850000
v 0.02820895 0.01712469 -0.00850000
v 0.02857884 0.01650000 -0.00850000
v 0.02831903 0.01635000 0.00850000
v 0.02795251 0.01696901 0.00850000
v 0.02820895 0.01712469 0.00850000
v 0.02857884 0.01650000 0.00850000
v 0.02594265 0.01990650 -0.00850000
v 0.02549847 0.02047237 -0.00850000
v 0.02573240 0.02066019 -0.00850000
v 0.02618066 0.02008913 -0.00850000
v 0.02594265 0.01990650 0.00850000
v 0.02549847 0.02047237 0.00850000
v 0.02573240 0.02066019 0.00850000
v 0.02618066 0.02008913 0.00850000
v 0.02312239 0.02312239 -0.00850000
v 0.02260814 0.02362545 -0.00850000
v 0.02281556 0.02384220 -0.00850000
v 0.02333452 0.02333452 -0.00850000
v 0.02312239 0.02312239 0.00850000
v 0.02260814 0.02362545 0.00850000
v 0.02281556 0.02384220 0.00850000
v 0.02333452 0.02333452 0.00850000
v 0.01990650 0.02594265 -0.00850000
v 0.01933099 0.02637428 -0.00850000
v 0.01950834 0.02661625 -0.00850000
v 0.02008913 0.02618066 -0.00850000
v 0.01990650 0.02594265 0.00850000
v 0.01933099 0.02637428 0.00850000
v 0.01950834 0.02661625 0.00850000
v 0.02008913 0.02618066 0.00850000
v 0.01635000 0.02831903 -0.00850000
v 0.01572308 0.02867185 -0.00850000
v 0.01586732 0.02893489 -0.00850000
v 0.01650000 0.02857884 -0.00850000
v 0.01635000 0.02831903 0.00850000
v 0.01572308 0.02867185 0.00850000
v 0.01586732 0.02893489 0.00850000
v 0.01650000 0.02857884 0.00850000
v 0.01251375 0.03021086 -0.00850000
v 0.01184613 0.03047883 -0.00850000
v 0.01195481 0.03075845 -0.00850000
v 0.01262855 0.03048802 -0.00850000
v 0.01251375 0.03021086 0.00850000
v 0.01184613 0.03047883 0.00850000
v 0.01195481 0.03075845 0.00850000
v 0.01262855 0.03048802 0.00850000
v 0.00846338 0.03158577 -0.00850000
v 0.00776650 0.03176431 -0.00850000
v 0.00783776 0.03205573 -0.00850000
v 0.00854103 0.03187555 -0.00850000
v 0.00846338 0.03158577 0.00850000
v 0.00776650 0.03176431 0.00850000
v 0.00783776 0.03205573 0.00850000
v 0.00854103 0.03187555 0.00850000
v 0.00426821 0.03242025 -0.00850000
v 0.00355399 0.03250629 -0.00850000
v 0.00358659 0.03280452 -0.00850000
v 0.00430736 0.03271768 -0.00850000
v 0.00426821 0.03242025 0.00850000
v 0.00355399 0.03250629 0.00850000
v 0.00358659 0.03280452 0.00850000
v 0.00430736 0.03271768 0.00850000
v 0.00000000 0.03270000 -0.00850000
v -0.00071934 0.03269209 -0.00850000
v -0.00072594 0.03299201 -0.00850000
v 0.00000000 0.03300000 -0.00850000
v 0.00000000 0.03270000 0.00850000
v -0.00071934 0.03269209 0.00850000
v -0.00072594 0.03299201 0.00850000
v 0.00000000 0.03300000 0.00850000
v -0.00426821 0.03242025 -0.00850000
v -0.00498036 0.03231851 -0.00850000
v -0.00502605 0.03261501 -0.00850000
v -0.00430736 0.03271768 -0.00850000
v -0.00426821 0.03242025 0.00850000
v -0.00498036 0.03231851 0.00850000
v -0.00502605 0.03261501 0.00850000
v -0.00430736 0.03271768 0.00850000
v -0.00846338 0.03158577 -0.00850000
v -0.00915617 0.03139195 -0.00850000
v -0.00924017 0.03167995 -0.00850000
v -0.00854103 0.03187555 -0.00850000
v -0.00846338 0.03158577 0.00850000
v -0.00915617 0.03139195 0.00850000
v -0.00924017 0.03167995 0.00850000
v -0.00854103 0.03187555 0.00850000
v -0.01251375 0.03021086 -0.00850000
v -0.01317531 0.02992827 -0.00850000
v -0.01329618 0.03020284 -0.00850000
v -0.01262855 0.03048802 -0.00850000
v -0.01251375 0.03021086 0.00850000
v -0.01317531 0.02992827 0.00850000
v -0.01329618 0.03020284 0.00850000
v -0.01262855 0.03048802 0.00850000
v -0.01635000 0.02831903 -0.00850000
v -0.01696901 0.02795251 -0.00850000
v -0.01712469 0.02820895 -0.00850000
v -0.01650000 0.02857884 -0.00850000
v -0.01635000 0.02831903 0.00850000
v -0.01696901 0.02795251 0.00850000
v -0.01712469 0.02820895 0.00850000
v -0.01650000 0.02857884 0.00850000
v -0.01990650 0.02594265 -0.00850000
v -0.02047237 0.02549847 -0.00850000
v -0.02066019 0.02573240 -0.00850000
v -0.02008913 0.02618066 -0.00850000
v -0.01990650 0.02594265 0.00850000
v -0.02047237 0.02549847 0.00850000
v -0.02066019 0.02573240 0.00850000
v -0.02008913 0.02618066 0.00850000
v -0.02312239 0.02312239 -0.00850000
v -0.02362545 0.02260814 -0.00850000
v -0.02384220 0.02281556 -0.00850000
v -0.02333452 0.02333452 -0.00850000
v -0.02312239 0.02312239 0.00850000
v -0.02362545 0.02260814 0.00850000
v -0.02384220 0.02281556 0.00850000
v -0.02333452 0.02333452 0.00850000
v -0.02594265 0.01990650 -0.00850000
v -0.02637428 0.01933099 -0.00850000
v -0.02661625 0.01950834 -0.00850000
v -0.02618066 0.02008913 -0.00850000
v -0.02594265 0.01990650 0.00850000
v -0.02637428 0.01933099 0.00850000
v -0.02661625 0.01950834 0.00850000
v -0.02618066 0.02008913 0.00850000
v -0.02831903 0.01635000 -0.00850000
v -0.02867185 0.01572308 -0.00850000
v -0.02893489 0.01586732 -0.00850000
v -0.02857884 0.01650000 -0.00850000
v -0.02831903 0.01635000 0.00850000
v -0.02867185 0.01572308 0.00850000
v -0.02893489 0.01586732 0.00850000
v -0.02857884 0.01650000 0.00850000
v -0.03021086 0.01251375 -0.00850000
v -0.03047883 0.01184613 -0.00850000
v -0.03075845 0.01195481 -0.00850000
v -0.03048802 0.01262855 -0.00850000
v -0.03021086 0.01251375 0.00850000
v -0.03047883 0.01184613 0.00850000
v -0.03075845 0.01195481 0.00850000
v -0.03048802 0.01262855 0.00850000
v -0.03158577 0.00846338 -0.00850000
v -0.03176431 0.00776650 -0.00850000
v -0.03205573 0.00783776 -0.00850000
v -0.03187555 0.00854103 -0.00850000
v -0.03158577 0.00846338 0.00850000
v -0.03176431 0.00776650 0.00850000
v -0.03205573 0.00783776 0.00850000
v -0.03187555 0.00854103 0.00850000
v -0.03242025 0.00426821 -0.00850000
v -0.03250629 0.00355399 -0.00850000
v -0.03280452 0.00358659 -0.00850000
v -0.03271768 0.00430736 -0.00850000
v -0.03242025 0.00426821 0.00850000
v -0.03250629 0.00355399 0.00850000
v -0.03280452 0.00358659 0.00850000
v -0.03271768 0.00430736 0.00850000
v -0.03270000 0.00000000 -0.00850000
v -0.03269209 -0.00071934 -0.00850000
v -0.03299201 -0.00072594 -0.00850000
v -0.03300000 0.00000000 -0.00850000
v -0.03270000 0.00000000 0.00850000
v -0.03269209 -0.00071934 0.00850000
v -0.03299201 -0.00072594 0.00850000
v -0.03300000 0.00000000 0.00850000
v -0.03242025 -0.00426821 -0.00850000
v -0.03231851 -0.00498036 -0.00850000
v -0.03261501 -0.00502605 -0.00850000
v -0.03271768 -0.00430736 -0.00850000
v -0.03242025 -0.00426821 0.00850000
v -0.03231851 -0.00498036 0.00850000
v -0.03261501 -0.00502605 0.00850000
v -0.03271768 -0.00430736 0.00850000
v -0.03158577 -0.00846338 -0.00850000
v -0.03139195 -0.00915617 -0.00850000
v -0.03167995 -0.00924017 -0.00850000
v -0.03187555 -0.00854103 -0.00850000
v -0.03158577 -0.00846338 0.00850000
v -0.03139195 -0.00915617 0.00850000
v -0.03167995 -0.00924017 0.00850000
v -0.03187555 -0.00854103 0.00850000
v -0.03021086 -0.01251375 -0.00850000
v -0.02992827 -0.01317531 -0.00850000
v -0.03020284 -0.01329618 -0.00850000
v -0.03048802 -0.01262855 -0.00850000
v -0.03021086 -0.01251375 0.00850000
v -0.02992827 -0.01317531 0.00850000
v -0.03020284 -0.01329618 0.00850000
v -0.03048802 -0.01262855 0.00850000
v -0.02831903 -0.01635000 -0.00850000
v -0.02795251 -0.01696901 -0.00850000
v -0.02820895 -0.01712469 -0.00850000
v -0.02857884 -0.01650000 -0.00850000
v -0.02831903 -0.01635000 0.00850000
v -0.02795251 -0.01696901 0.00850000
v -0.02820895 -0.01712469 0.00850000
v -0.02857884 -0.01650000 0.00850000
v -0.02594265 -0.01990650 -0.00850000
v -0.02549847 -0.02047237 -0.00850000
v -0.02573240 -0.02066019 -0.00850000
v -0.02618066 -0.02008913 -0.00850000
v -0.02594265 -0.01990650 0.00850000
v -0.02549847 -0.02047237 0.00850000
v -0.02573240 -0.02066019 0.00850000
v -0.02618066 -0.02008913 0.00850000
v -0.02312239 -0.02312239 -0.00850000
v -0.02260814 -0.02362545 -0.00850000
v -0.02281556 -0.02384220 -0.00850000
v -0.02333452 -0.02333452 -0.00850000
v -0.02312239 -0.02312239 0.00850000
v -0.02260814 -0.02362545 0.00850000
v -0.02281556 -0.02384220 0.00850000
v -0.02333452 -0.02333452 0.00850000
v -0.01990650 -0.02594265 -0.00850000
v -0.01933099 -0.02637428 -0.00850000
v -0.01950834 -0.02661625 -0.00850000
v -0.02008913 -0.02618066 -0.00850000
v -0.01990650 -0.02594265 0.00850000
v -0.01933099 -0.02637428 0.00850000
v -0.01950834 -0.02661625 0.00850000
v -0.02008913 -0.02618066 0.00850000
v -0.01635000 -0.02831903 -0.00850000
v -0.01572308 -0.02867185 -0.00850000
v -0.01586732 -0.02893489 -0.00850000
v -0.01650000 -0.02857884 -0.00850000
v -0.01635000 -0.02831903 0.00850000
v -0.01572308 -0.02867185 0.00850000
v -0.01586732 -0.02893489 0.00850000
v -0.01650000 -0.02857884 0.00850000
v -0.01251375 -0.03021086 -0.00850000
v -0.01184613 -0.03047883 -0.00850000
v -0.01195481 -0.03075845 -0.00850000
v -0.01262855 -0.03048802 -0.00850000
v -0.01251375 -0.03021086 0.00850000
v -0.01184613 -0.03047883 0.00850000
v -0.01195481 -0.03075845 0.00850000
v -0.01262855 -0.03048802 0.00850000
v -0.00846338 -0.03158577 -0.00850000
v -0.00776650 -0.03176431 -0.00850000
v -0.00783776 -0.03205573 -0.00850000
v -0.00854103 -0.03187555 -0.00850000
v -0.00846338 -0.03158577 0.00850000
v -0.00776650 -0.03176431 0.00850000
v -0.00783776 -0.03205573 0.00850000
v -0.00854103 -0.03187555 0.00850000
v -0.00426821 -0.03242025 -0.00850000
v -0.00355399 -0.03250629 -0.00850000
v -0.00358659 -0.03280452 -0.00850000
v -0.00430736 -0.03271768 -0.00850000
v -0.00426821 -0.03242025 0.00850000
v -0.00355399 -0.03250629 0.00850000
v -0.00358659 -0.03280452 0.00850000
v -0.00430736 -0.03271768 0.00850000
v -0.00000000 -0.03270000 -0.00850000
v 0.00071934 -0.03269209 -0.00850000
v 0.00072594 -0.03299201 -0.00850000
v -0.00000000 -0.03300000 -0.00850000
v -0.00000000 -0.03270000 0.00850000
v 0.00071934 -0.03269209 0.00850000
v 0.00072594 -0.03299201 0.00850000
v -0.00000000 -0.03300000 0.00850000
v 0.00426821 -0.03242025 -0.00850000
v 0.00498036 -0.03231851 -0.00850000
v 0.00502605 -0.03261501 -0.00850000
v 0.00430736 -0.03271768 -0.00850000
v 0.00426821 -0.03242025 0.00850000
v 0.00498036 -0.03231851 0.00850000
v 0.00502605 -0.03261501 0.00850000
v 0.00430736 -0.03271768 0.00850000
v 0.00846338 -0.03158577 -0.00850000
v 0.00915617 -0.03139195 -0.00850000
v 0.00924017 -0.03167995 -0.00850000
v 0.00854103 -0.03187555 -0.00850000
v 0.00846338 -0.03158577 0.00850000
v 0.00915617 -0.03139195 0.00850000
v 0.00924017 -0.03167995 0.00850000
v 0.00854103 -0.03187555 0.00850000
v 0.01251375 -0.03021086 -0.00850000
v 0.01317531 -0.02992827 -0.00850000
v 0.01329618 -0.03020284 -0.00850000
v 0.01262855 -0.03048802 -0.00850000
v 0.01251375 -0.03021086 0.00850000
v 0.01317531 -0.02992827 0.00850000
v 0.01329618 -0.03020284 0.00850000
v 0.01262855 -0.03048802 0.00850000
v 0.01635000 -0.02831903 -0.00850000
v 0.01696901 -0.02795251 -0.00850000
v 0.01712469 -0.02820895 -0.00850000
v 0.01650000 -0.02857884 -0.00850000
v 0.01635000 -0.02831903 0.00850000
v 0.01696901 -0.02795251 0.00850000
v 0.01712469 -0.02820895 0.00850000
v 0.01650000 -0.02857884 0.00850000
v 0.01990650 -0.02594265 -0.00850000
v 0.02047237 -0.02549847 -0.00850000
v 0.02066019 -0.02573240 -0.00850000
v 0.02008913 -0.02618066 -0.00850000
v 0.01990650 -0.02594265 0.00850000
v 0.02047237 -0.02549847 0.00850000
v 0.02066019 -0.02573240 0.00850000
v 0.02008913 -0.02618066 0.00850000
v 0.02312239 -0.02312239 -0.00850000
v 0.02362545 -0.02260814 -0.00850000
v 0.02384220 -0.02281556 -0.00850000
v 0.02333452 -0.02333452 -0.00850000
v 0.02312239 -0.02312239 0.00850000
v 0.02362545 -0.02260814 0.00850000
v 0.02384220 -0.02281556 0.00850000
v 0.02333452 -0.02333452 0.00850000
v 0.02594265 -0.01990650 -0.00850000
v 0.02637428 -0.01933099 -0.00850000
v 0.02661625 -0.01950834 -0.00850000
v 0.02618066 -0.02008913 -0.00850000
v 0.02594265 -0.01990650 0.00850000
v 0.02637428 -0.01933099 0.00850000
v 0.02661625 -0.01950834 0.00850000
v 0.02618066 -0.02008913 0.00850000
v 0.02831903 -0.01635000 -0.00850000
v 0.02867185 -0.01572308 -0.00850000
v 0.02893489 -0.01586732 -0.00850000
v 0.02857884 -0.01650000 -0.00850000
v 0.02831903 -0.01635000 0.00850000
v 0.02867185 -0.01572308 0.00850000
v 0.02893489 -0.01586732 0.00850000
v 0.02857884 -0.01650000 0.00850000
v 0.03021086 -0.01251375 -0.00850000
v 0.03047883 -0.01184613 -0.00850000
v 0.03075845 -0.01195481 -0.00850000
v 0.03048802 -0.01262855 -0.00850000
v 0.03021086 -0.01251375 0.00850000
v 0.03047883 -0.01184613 0.00850000
v 0.03075845 -0.01195481 0.00850000
v 0.03048802 -0.01262855 0.00850000
v 0.03158577 -0.00846338 -0.00850000
v 0.03176431 -0.00776650 -0.00850000
v 0.03205573 -0.00783776 -0.00850000
v 0.03187555 -0.00854103 -0.00850000
v 0.03158577 -0.00846338 0.00850000
v 0.03176431 -0.00776650 0.00850000
v 0.03205573 -0.00783776 0.00850000
v 0.03187555 -0.00854103 0.00850000
v 0.03242025 -0.00426821 -0.00850000
v 0.03250629 -0.00355399 -0.00850000
v 0.03280452 -0.00358659 -0.00850000
v 0.03271768 -0.00430736 -0.00850000
v 0.03242025 -0.00426821 0.00850000
v 0.03250629 -0.00355399 0.00850000
v 0.03280452 -0.00358659 0.00850000
v 0.03271768 -0.00430736 0.00850000
usemtl tire
f 1 2 66 65
f 129 193 194 130
f 65 66 194 193
f 1 129 130 2
f 2 3 67 66
f 130 194 195 131
f 66 67 195 194
f 2 130 131 3
f 3 4 68 67
f 131 195 196 132
f 67 68 196 195
f 3 131 132 4
f 4 5 69 68
f 132 196 197 133
f 68 69 197 196
f 4 132 133 5
f 5 6 70 69
f 133 197 198 134
f 69 70 198 197
f 5 133 134 6
f 6 7 71 70
f 134 198 199 135
f 70 71 199 198
f 6 134 135 7
f 7 8 72 71
f 135 199 200 136
f 71 72 200 199
f 7 135 136 8
f 8 9 73 72
f 136 200 201 137
f 72 73 201 200
f 8 136 137 9
f 9 10 74 73
f 137 201 202 138
f 73 74 202 201
f 9 137 138 10
f 10 11 75 74
f 138 202 203 139
f 74 75 203 202
f 10 138 139 11
f 11 12 76 75
f 139 203 204 140
f 75 76 204 203
f 11 139 140 12
f 12 13 77 76
f 140 204 205 141
f 76 77 205 204
f 12 140 141 13
f 13 14 78 77
f 141 205 206 142
f 77 78 206 205
f 13 141 142 14
f 14 15 79 78
f 142 206 207 143
f 78 79 207 206
f 14 142 143 15
f 15 16 80 79
f 143 207 208 144
f 79 80 208 207
f 15 143 144 16
f 16 17 81 80
f 144 208 209 145
f 80 81 209 208
f 16 144 145 17
f 17 18 82 81
f 145 209 210 146
f 81 82 210 209
f 17 145 146 18
f 18 19 83 82
f 146 210 211 147
f 82 83 211 210
f 18 146 147 19
f 19 20 84 83
f 147 211 212 148
f 83 84 212 211
f 19 147 148 20
f 20 21 85 84
f 148 212 213 149
f 84 85 213 212
f 20 148 149 21
f 21 22 86 85
f 149 213 214 150
f 85 86 214 213
f 21 149 150 22
f 22 23 87 86
f 150 214 215 151
f 86 87 215 214
f 22 150 151 23
f 23 24 88 87
f 151 215 216 152
f 87 88 216 215
f 23 151 152 24
f 24 25 89 88
f 152 216 217 153
f 88 89 217 216
f 24 152 153 25
f 25 26 90 89
f 153 217 218 154
f 89 90 218 217
f 25 153 154 26
f 26 27 91 90
f 154 218 219 155
f 90 91 219 218
f 26 154 155 27
f 27 28 92 91
f 155 219 220 156
f 91 92 220 219
f 27 155 156 28
f 28 29 93 92
f 156 220 221 157
f 92 93 221 220
f 28 156 157 29
f 29 30 94 93
f 157 221 222 158
f 93 94 222 221
f 29 157 158 30
f 30 31 95 94
f 158 222 223 159
f 94 95 223 222
f 30 158 159 31
f 31 32 96 95
f 159 223 224 160
f 95 96 224 223
f 31 159 160 32
f 32 33 97 96
f 160 224 225 161
f 96 97 225 224
f 32 160 161 33
f 33 34 98 97
f 161 225 226 162
f 97 98 226 225
f 33 161 162 34
f 34 35 99 98
f 162 226 227 163
f 98 99 227 226
f 34 162 163 35
f 35 36 100 99
f 163 227 228 164
f 99 100 228 227
f 35 163 164 36
f 36 37 101 100
f 164 228 229 165
f 100 101 229 228
f 36 164 165 37
f 37 38 102 101
f 165 229 230 166
f 101 102 230 229
f 37 165 166 38
f 38 39 103 102
f 166 230 231 167
f 102 103 231 230
f 38 166 167 39
f 39 40 104 103
f 167 231 232 168
f 103 104 232 231
f 39 167 168 40
f 40 41 105 104
f 168 232 233 169
f 104 105 233 232
f 40 168 169 41
f 41 42 106 105
f 169 233 234 170
f 105 106 234 233
f 41 169 170 42
f 42 43 107 106
f 170 234 235 171
f 106 107 235 234
f 42 170 171 43
f 43 44 108 107
f 171 235 236 172
f 107 108 236 235
f 43 171 172 44
f 44 45 109 108
f 172 236 237 173
f 108 109 237 236
f 44 172 173 45
f 45 46 110 109
f 173 237 238 174
f 109 110 238 237
f 45 173 174 46
f 46 47 111 110
f 174 238 239 175
f 110 111 239 238
f 46 174 175 47
f 47 48 112 111
f 175 239 240 176
f 111 112 240 239
f 47 175 176 48
f 48 49 113 112
f 176 240 241 177
f 112 113 241 240
f 48 176 177 49
f 49 50 114 113
f 177 241 242 178
f 113 114 242 241
f 49 177 178 50
f 50 51 115 114
f 178 242 243 179
f 114 115 243 242
f 50 178 179 51
f 51 52 116 115
f 179 243 244 180
f 115 116 244 243
f 51 179 180 52
f 52 53 117 116
f 180 244 245 181
f 116 117 245 244
f 52 180 181 53
f 53 54 118 117
f 181 245 246 182
f 117 118 246 245
f 53 181 182 54
f 54 55 119 118
f 182 246 247 183
f 118 119 247 246
f 54 182 183 55
f 55 56 120 119
f 183 247 248 184
f 119 120 248 247
f 55 183 184 56
f 56 57 121 120
f 184 248 249 185
f 120 121 249 248
f 56 184 185 57
f 57 58 122 121
f 185 249 250 186
f 121 122 250 249
f 57 185 186 58
f 58 59 123 122
f 186 250 251 187
f 122 123 251 250
f 58 186 187 59
f 59 60 124 123
f 187 251 252 188
f 123 124 252 251
f 59 187 188 60
f 60 61 125 124
f 188 252 253 189
f 124 125 253 252
f 60 188 189 61
f 61 62 126 125
f 189 253 254 190
f 125 126 254 253
f 61 189 190 62
f 62 63 127 126
f 190 254 255 191
f 126 127 255 254
f 62 190 191 63
f 63 64 128 127
f 191 255 256 192
f 127 128 256 255
f 63 191 192 64
f 64 1 65 128
f 192 256 193 129
f 128 65 193 256
f 64 192 129 1
usemtl rim
f 257 258 306 305
f 353 401 402 354
f 305 306 402 401
f 257 353 354 258
f 258 259 307 306
f 354 402 403 355
f 306 307 403 402
f 258 354 355 259
f 259 260 308 307
f 355 403 404 356
f 307 308 404 403
f 259 355 356 260
f 260 261 309 308
f 356 404 405 357
f 308 309 405 404
f 260 356 357 261
f 261 262 310 309
f 357 405 406 358
f 309 310 406 405
f 261 357 358 262
f 262 263 311 310
f 358 406 407 359
f 310 311 407 406
f 262 358 359 263
f 263 264 312 311
f 359 407 408 360
f 311 312 408 407
f 263 359 360 264
f 264 265 313 312
f 360 408 409 361
f 312 313 409 408
f 264 360 361 265
f 265 266 314 313
f 361 409 410 362
f 313 314 410 409
f 265 361 362 266
f 266 267 315 314
f 362 410 411 363
f 314 315 411 410
f 266 362 363 267
f 267 268 316 315
f 363 411 412 364
f 315 316 412 411
f 267 363 364 268
f 268 269 317 316
f 364 412 413 365
f 316 317 413 412
f 268 364 365 269
f 269 270 318 317
f 365 413 414 366
f 317 318 414 413
f 269 365 366 270
f 270 271 319 318
f 366 414 415 367
f 318 319 415 414
f 270 366 367 271
f 271 272 320 319
f 367 415 416 368
f 319 320 416 415
f 271 367 368 272
f 272 273 321 320
f 368 416 417 369
f 320 321 417 416
f 272 368 369 273
f 273 274 322 321
f 369 417 418 370
f 321 322 418 417
f 273 369 370 274
f 274 275 323 322
f 370 418 419 371
f 322 323 419 418
f 274 370 371 275
f 275 276 324 323
f 371 419 420 372
f 323 324 420 419
f 275 371 372 276
f 276 277 325 324
f 372 420 421 373
f 324 325 421 420
f 276 372 373 277
f 277 278 326 325
f 373 421 422 374
f 325 326 422 421
f 277 373 374 278
f 278 279 327 326
f 374 422 423 375
f 326 327 423 422
f 278 374 375 279
f 279 280 328 327
f 375 423 424 376
f 327 328 424 423
f 279 375 376 280
f 280 281 329 328
f 376 424 425 377
f 328 329 425 424
f 280 376 377 281
f 281 282 330 329
f 377 425 426 378
f 329 330 426 425
f 281 377 378 282
f 282 283 331 330
f 378 426 427 379
f 330 331 427 426
f 282 378 379 283
f 283 284 332 331
f 379 427 428 380
f 331 332 428 427
f 283 379 380 284
f 284 285 333 332
f 380 428 429 381
f 332 333 429 428
f 284 380 381 285
f 285 286 334 333
f 381 429 430 382
f 333 334 430 429
f 285 381 382 286
f 286 287 335 334
f 382 430 431 383
f 334 335 431 430
f 286 382 383 287
f 287 288 336 335
f 383 431 432 384
f 335 336 432 431
f 287 383 384 288
f 288 289 337 336
f 384 432 433 385
f 336 337 433 432
f 288 384 385 289
f 289 290 338 337
f 385 433 434 386
f 337 338 434 433
f 289 385 386 290
f 290 291 339 338
f 386 434 435 387
f 338 339 435 434
f 290 386 387 291
f 291 292 340 339
f 387 435 436 388
f 339 340 436 435
f 291 387 388 292
f 292 293 341 340
f 388 436 437 389
f 340 341 437 436
f 292 388 389 293
f 293 294 342 341
f 389 437 438 390
f 341 342 438 437
f 293 389 390 294
f 294 295 343 342
f 390 438 439 391
f 342 343 439 438
f 294 390 391 295
f 295 296 344 343
f 391 439 440 392
f 343 344 440 439
f 295 391 392 296
f 296 297 345 344
f 392 440 441 393
f 344 345 441 440
f 296 392 393 297
f 297 298 346 345
f 393 441 442 394
f 345 346 442 441
f 297 393 394 298
f 298 299 347 346
f 394 442 443 395
f 346 347 443 442
f 298 394 395 299
f 299 300 348 347
f 395 443 444 396
f 347 348 444 443
f 299 395 396 300
f 300 301 349 348
f 396 444 445 397
f 348 349 445 444
f 300 396 397 301
f 301 302 350 349
f 397 445 446 398
f 349 350 446 445
f 301 397 398 302
f 302 303 351 350
f 398 446 447 399
f 350 351 447 446
f 302 398 399 303
f 303 304 352 351
f 399 447 448 400
f 351 352 448 447
f 303 399 400 304
f 304 257 305 352
f 400 448 401 353
f 352 305 401 448
f 304 400 353 257
usemtl hub
f 449 450 482 481
f 513 545 546 514
f 481 482 546 545
f 449 513 514 450
f 450 451 483 482
f 514 546 547 515
f 482 483 547 546
f 450 514 515 451
f 451 452 484 483
f 515 547 548 516
f 483 484 548 547
f 451 515 516 452
f 452 453 485 484
f 516 548 549 517
f 484 485 549 548
f 452 516 517 453
f 453 454 486 485
f 517 549 550 518
f 485 486 550 549
f 453 517 518 454
f 454 455 487 486
f 518 550 551 519
f 486 487 551 550
f 454 518 519 455
f 455 456 488 487
f 519 551 552 520
f 487 488 552 551
f 455 519 520 456
f 456 457 489 488
f 520 552 553 521
f 488 489 553 552
f 456 520 521 457
f 457 458 490 489
f 521 553 554 522
f 489 490 554 553
f 457 521 522 458
f 458 459 491 490
f 522 554 555 523
f 490 491 555 554
f 458 522 523 459
f 459 460 492 491
f 523 555 556 524
f 491 492 556 555
f 459 523 524 460
f 460 461 493 492
f 524 556 557 525
f 492 493 557 556
f 460 524 525 461
f 461 462 494 493
f 525 557 558 526
f 493 494 558 557
f 461 525 526 462
f 462 463 495 494
f 526 558 559 527
f 494 495 559 558
f 462 526 527 463
f 463 464 496 495
f 527 559 560 528
f 495 496 560 559
f 463 527 528 464
f 464 465 497 496
f 528 560 561 529
f 496 497 561 560
f 464 528 529 465
f 465 466 498 497
f 529 561 562 530
f 497 498 562 561
f 465 529 530 466
f 466 467 499 498
f 530 562 563 531
f 498 499 563 562
f 466 530 531 467
f 467 468 500 499
f 531 563 564 532
f 499 500 564 563
f 467 531 532 468
f 468 469 501 500
f 532 564 565 533
f 500 501 565 564
f 468 532 533 469
f 469 470 502 501
f 533 565 566 534
f 501 502 566 565
f 469 533 534 470
f 470 471 503 502
f 534 566 567 535
f 502 503 567 566
f 470 534 535 471
f 471 472 504 503
f 535 567 568 536
f 503 504 568 567
f 471 535 536 472
f 472 473 505 504
f 536 568 569 537
f 504 505 569 568
f 472 536 537 473
f 473 474 506 505
f 537 569 570 538
f 505 506 570 569
f 473 537 538 474
f 474 475 507 506
f 538 570 571 539
f 506 507 571 570
f 474 538 539 475
f 475 476 508 507
f 539 571 572 540
f 507 508 572 571
f 475 539 540 476
f 476 477 509 508
f 540 572 573 541
f 508 509 573 572
f 476 540 541 477
f 477 478 510 509
f 541 573 574 542
f 509 510 574 573
f 477 541 542 478
f 478 479 511 510
f 542 574 575 543
f 510 511 575 574
f 478 542 543 479
f 479 480 512 511
f 543 575 576 544
f 511 512 576 575
f 479 543 544 480
f 480 449 481 512
f 544 576 545 513
f 512 481 545 576
f 480 544 513 449
usemtl tread
f 577 578 582 581
f 579 580 584 583
f 577 581 584 580
f 578 579 583 582
f 585 586 590 589
f 587 588 592 591
f 585 589 592 588
f 586 587 591 590
f 593 594 598 597
f 595 596 600 599
f 593 597 600 596
f 594 595 599 598
f 601 602 606 605
f 603 604 608 607
f 601 605 608 604
f 602 603 607 606
f 609 610 614 613
f 611 612 616 615
f 609 613 616 612
f 610 611 615 614
f 617 618 622 621
f 619 620 624 623
f 617 621 624 620
f 618 619 623 622
f 625 626 630 629
f 627 628 632 631
f 625 629 632 628
f 626 627 631 630
f 633 634 638 637
f 635 636 640 639
f 633 637 640 636
f 634 635 639 638
f 641 642 646 645
f 643 644 648 647
f 641 645 648 644
f 642 643 647 646
f 649 650 654 653
f 651 652 656 655
f 649 653 656 652
f 650 651 655 654
f 657 658 662 661
f 659 660 664 663
f 657 661 664 660
f 658 659 663 662
f 665 666 670 669
f 667 668 672 671
f 665 669 672 668
f 666 667 671 670
f 673 674 678 677
f 675 676 680 679
f 673 677 680 676
f 674 675 679 678
f 681 682 686 685
f 683 684 688 687
f 681 685 688 684
f 682 683 687 686
f 689 690 694 693
f 691 692 696 695
f 689 693 696 692
f 690 691 695 694
f 697 698 702 701
f 699 700 704 703
f 697 701 704 700
f 698 699 703 702
f 705 706 710 709
f 707 708 712 711
f 705 709 712 708
f 706 707 711 710
f 713 714 718 717
f 715 716 720 719
f 713 717 720 716
f 714 715 719 718
f 721 722 726 725
f 723 724 728 727
f 721 725 728 724
f 722 723 727 726
f 729 730 734 733
f 731 732 736 735
f 729 733 736 732
f 730 731 735 734
f 737 738 742 741
f 739 740 744 743
f 737 741 744 740
f 738 739 743 742
f 745 746 750 749
f 747 748 752 751
f 745 749 752 748
f 746 747 751 750
f 753 754 758 757
f 755 756 760 759
f 753 757 760 756
f 754 755 759 758
f 761 762 766 765
f 763 764 768 767
f 761 765 768 764
f 762 763 767 766
f 769 770 774 773
f 771 772 776 775
f 769 773 776 772
f 770 771 775 774
f 777 778 782 781
f 779 780 784 783
f 777 781 784 780
f 778 779 783 782
f 785 786 790 789
f 787 788 792 791
f 785 789 792 788
f 786 787 791 790
f 793 794 798 797
f 795 796 800 799
f 793 797 800 796
f 794 795 799 798
f 801 802 806 805
f 803 804 808 807
f 801 805 808 804
f 802 803 807 806
f 809 810 814 813
f 811 812 816 815
f 809 813 816 812
f 810 811 815 814
f 817 818 822 821
f 819 820 824 823
f 817 821 824 820
f 818 819 823 822
f 825 826 830 829
f 827 828 832 831
f 825 829 832 828
f 826 827 831 830
f 833 834 838 837
f 835 836 840 839
f 833 837 840 836
f 834 835 839 838
f 841 842 846 845
f 843 844 848 847
f 841 845 848 844
f 842 843 847 846
f 849 850 854 853
f 851 852 856 855
f 849 853 856 852
f 850 851 855 854
f 857 858 862 861
f 859 860 864 863
f 857 861 864 860
f 858 859 863 862
f 865 866 870 869
f 867 868 872 871
f 865 869 872 868
f 866 867 871 870
f 873 874 878 877
f 875 876 880 879
f 873 877 880 876
f 874 875 879 878
f 881 882 886 885
f 883 884 888 887
f 881 885 888 884
f 882 883 887 886
f 889 890 894 893
f 891 892 896 895
f 889 893 896 892
f 890 891 895 894
f 897 898 902 901
f 899 900 904 903
f 897 901 904 900
f 898 899 903 902
f 905 906 910 909
f 907 908 912 911
f 905 909 912 908
f 906 907 911 910
f 913 914 918 917
f 915 916 920 919
f 913 917 920 916
f 914 915 919 918
f 921 922 926 925
f 923 924 928 927
f 921 925 928 924
f 922 923 927 926
f 929 930 934 933
f 931 932 936 935
f 929 933 936 932
f 930 931 935 934
f 937 938 942 941
f 939 940 944 943
f 937 941 944 940
f 938 939 943 942
f 945 946 950 949
f 947 948 952 951
f 945 949 952 948
f 946 947 951 950
f 953 954 958 957
f 955 956 960 959
f 953 957 960 956
f 954 955 959 958
